<?xml version="1.0" encoding="utf-8"?>
<!-- Generator: Adobe Illustrator 27.5.0, SVG Export Plug-In . SVG Version: 6.00 Build 0)  -->
<svg version="1.1" id="Layer_1" xmlns="http://www.w3.org/2000/svg" xmlns:xlink="http://www.w3.org/1999/xlink" x="0px" y="0px"
	 viewBox="0 0 4000 4000" style="enable-background:new 0 0 4000 4000;" xml:space="preserve">
<g>
	<!-- <rect x="0" style="fill-rule:evenodd;clip-rule:evenodd;fill:#FFFFFF;" width="3999.999" height="4000"/> -->
	<g>
		<defs>
			<path id="SVGID_1_" d="M2646.457,1127.106c14.975,17.585,29.125,35.845,42.439,54.813c33.671,21.812,62.281,44.848,83.183,68.362
				c-3.242,15.808-8.812,31.97-16.28,48.368c11.777,25.645,22.091,52.163,30.944,79.347c55.045,169.447,45.6,295.82-20.63,456.378
				c-54.139,54.018-115.509,155.258-184.777,192.165c-51.963,27.705-107.959,49.99-167.197,65.877l-1410.496,377.935v-503.165
				l1284.718-344.225c17.819-4.78,34.851-11.063,51.013-18.652c14.031-6.642,27.426-14.267,40.111-22.842l6.166-3.95
				c97.998-72.633,147.589-201.417,114.321-325.658c-34.459-128.503-147.515-216.113-273.653-225.005
				C2389.601,892.421,2641.477,1230.723,2646.457,1127.106"/>
		</defs>
		<clipPath id="SVGID_00000000938706549499192370000013778957751450418595_">
			<use xlink:href="#SVGID_1_"  style="overflow:visible;"/>
		</clipPath>
		
			<linearGradient id="SVGID_00000115517098428904483710000002681097993003440012_" gradientUnits="userSpaceOnUse" x1="2637.6531" y1="5213.4976" x2="1426.1565" y2="-771.8315">
			<stop  offset="0" style="stop-color:#0000FF"/>
			<stop  offset="1" style="stop-color:#00FFFF"/>
		</linearGradient>
		
			<rect x="1003.643" y="892.421" style="clip-path:url(#SVGID_00000000938706549499192370000013778957751450418595_);fill:url(#SVGID_00000115517098428904483710000002681097993003440012_);" width="1838.144" height="1577.929"/>
	</g>
	<g>
		<defs>
			<polygon id="SVGID_00000113342560079077949550000002972848692429460364_" points="1248.883,3460 1248.883,2583.287 
				1734.973,2453.041 1734.934,3460 			"/>
		</defs>
		<clipPath id="SVGID_00000124870213596615569010000007538063290545912757_">
			<use xlink:href="#SVGID_00000113342560079077949550000002972848692429460364_"  style="overflow:visible;"/>
		</clipPath>
		
			<linearGradient id="SVGID_00000048469932384481083960000011016785655444193465_" gradientUnits="userSpaceOnUse" x1="-2725.626" y1="3112.8428" x2="5067.0171" y2="2824.0107">
			<stop  offset="0" style="stop-color:#0000FF"/>
			<stop  offset="1" style="stop-color:#00FFFF"/>
		</linearGradient>
		
			<rect x="1248.883" y="2453.041" style="clip-path:url(#SVGID_00000124870213596615569010000007538063290545912757_);fill:url(#SVGID_00000048469932384481083960000011016785655444193465_);" width="486.09" height="1006.959"/>
	</g>
	<g>
		<defs>
			<path id="SVGID_00000044171062571462766600000015821771451711295370_" d="M2632.166,1217.608
				c211.104,237.487,187.427,605.238-58.025,812.758c319.313-168.26,492.438-541.37,395.201-904.265
				c-96.908-361.658-431.429-597.836-790.692-585.638c-58.88,1.993-118.432,10.663-177.7,26.546l-748.993,200.692l-3.067,503.953
				l877.843-235.213c17.825-4.777,35.717-7.848,53.513-9.322c15.471-1.285,30.869-1.357,46.077-0.283
				C2384.054,1032.236,2530.127,1102.818,2632.166,1217.608"/>
		</defs>
		<clipPath id="SVGID_00000173137421410136892210000007942370347831940245_">
			<use xlink:href="#SVGID_00000044171062571462766600000015821771451711295370_"  style="overflow:visible;"/>
		</clipPath>
		
			<linearGradient id="SVGID_00000126292013676213403320000012733509213930592700_" gradientUnits="userSpaceOnUse" x1="3012.0486" y1="5832.2598" x2="1900.2217" y2="-93.0631">
			<stop  offset="0" style="stop-color:#0000FF"/>
			<stop  offset="1" style="stop-color:#00FFFF"/>
		</linearGradient>
		
			<rect x="1248.891" y="528.265" style="clip-path:url(#SVGID_00000173137421410136892210000007942370347831940245_);fill:url(#SVGID_00000126292013676213403320000012733509213930592700_);" width="1817.687" height="1502.101"/>
	</g>
</g>
</svg>
